<svg id="svg" xmlns="http://www.w3.org/2000/svg" xmlns:xlink="http://www.w3.org/1999/xlink" width="400" height="400" viewBox="0, 0, 400,376.54320987654324"><g id="svgg"><path id="path0" d="M97.626 54.043 C 86.793 59.993,86.602 72.123,97.171 82.970 C 109.435 95.556,129.279 87.799,126.525 71.494 C 124.215 57.827,108.270 48.197,97.626 54.043 M334.564 113.359 C 332.918 116.536,328.256 125.218,324.204 132.652 L 316.837 146.169 320.296 152.365 C 337.142 182.538,332.704 233.006,311.218 255.592 C 305.722 261.370,303.345 261.531,299.514 256.385 C 296.959 252.953,296.913 251.897,296.871 195.274 C 296.828 138.467,295.411 115.865,291.659 112.165 C 291.154 111.668,285.612 117.755,279.344 125.692 L 267.946 140.123 267.924 156.632 C 267.870 195.797,256.964 237.955,242.812 253.704 C 237.705 259.387,237.144 258.142,239.414 246.156 C 247.730 202.263,245.810 153.787,234.477 121.479 C 233.072 117.474,231.620 112.948,231.250 111.420 C 230.189 107.044,229.414 107.782,219.126 122.971 L 209.421 137.301 214.445 141.475 C 237.313 160.470,246.203 208.181,236.198 258.209 C 235.146 263.467,237.246 262.553,244.620 254.543 C 257.680 240.356,271.293 208.872,275.411 183.333 C 278.433 164.586,278.296 164.699,280.611 179.012 C 281.763 186.142,283.831 202.406,285.204 215.155 C 290.418 263.552,295.893 272.757,311.038 258.591 C 329.829 241.014,339.506 200.520,339.506 139.466 C 339.506 106.470,339.139 104.529,334.564 113.359 M79.630 161.237 C 72.160 167.138,65.819 172.161,65.538 172.400 C 65.257 172.638,67.201 180.474,69.859 189.812 C 75.467 209.515,76.388 229.685,72.550 248.765 C 67.145 275.640,69.643 295.013,80.114 307.419 L 82.709 310.494 85.490 307.280 C 110.149 278.789,109.002 280.776,101.370 279.764 C 77.777 276.634,70.332 227.384,86.420 180.864 C 89.970 170.598,94.029 154.394,93.581 152.271 C 93.337 151.112,88.564 154.179,79.630 161.237 M155.994 171.568 C 121.627 178.943,109.913 213.356,123.463 267.138 C 128.470 287.013,131.222 305.071,130.639 314.230 C 130.359 318.626,130.513 322.222,130.982 322.222 C 131.640 322.222,146.467 304.199,157.187 290.368 C 158.109 289.179,157.178 287.746,153.599 284.853 C 123.956 260.881,113.573 237.599,122.219 214.489 C 135.050 180.197,201.235 191.792,201.235 228.332 C 201.235 236.752,198.488 248.059,193.871 258.642 C 179.616 291.321,184.236 317.792,205.080 322.856 C 208.585 323.708,208.122 324.273,230.080 292.284 C 239.164 279.049,239.210 278.613,230.972 283.842 C 210.778 296.659,192.593 292.066,192.593 274.149 C 192.593 265.943,195.678 258.180,204.916 243.148 C 220.763 217.360,223.110 205.681,215.432 190.820 C 207.428 175.330,179.947 166.429,155.994 171.568 " stroke="none" fill="#000000" fill-rule="evenodd"></path></g></svg>
